<svg width="28" height="28" viewBox="0 0 28 28" fill="none" xmlns="http://www.w3.org/2000/svg">
<mask id="path-1-outside-1_52_64" maskUnits="userSpaceOnUse" x="0" y="0" width="28" height="28" fill="black">
<rect fill="white" width="28" height="28"/>
<path d="M23.6823 11.8204C23.4478 11.3606 23.0347 11.0172 22.54 10.8707C22.045 10.724 21.5117 10.7869 21.0645 11.0447L20.5305 11.3528C20.4589 11.078 20.3234 10.8241 20.1352 10.6117C19.8803 10.326 19.5439 10.1255 19.1715 10.0373L19.3322 9.87682C20.0719 9.1684 20.1275 8.00463 19.4585 7.22879C19.113 6.84349 18.6242 6.61735 18.1069 6.60356C17.5894 6.58977 17.0891 6.78942 16.7236 7.15589L15.8269 8.05476C15.6257 7.20646 14.8687 6.60706 13.9967 6.60619H13.9941C13.4961 6.60509 13.0182 6.80343 12.667 7.15677L9.24205 10.5811C9.179 10.0263 8.9198 9.5121 8.51086 9.13162C7.95569 8.63096 7.10541 8.65482 6.57891 9.18547L3.34156 12.427C0.381138 15.3012 0.205347 19.9956 2.94247 23.0832C3.49612 23.6892 4.14367 24.2021 4.86041 24.6021C5.00884 24.7604 5.16974 24.9191 5.34378 25.0747C7.79785 27.258 11.3756 27.6212 14.2183 25.9756L21.675 21.6714C22.5713 21.1776 22.9255 20.0698 22.4822 19.1478C22.309 18.8045 22.0345 18.5227 21.6958 18.3406L22.6494 17.7905C23.5485 17.2997 23.9069 16.1911 23.4649 15.2668C23.2928 14.9253 23.0201 14.6451 22.6834 14.4638L22.8775 14.3517C23.776 13.8559 24.1293 12.744 23.6823 11.8204ZM3.60514 22.4792C1.1896 19.7456 1.35182 15.5956 3.97314 13.0588L7.21246 9.8199C7.39416 9.62616 7.69671 9.61105 7.89658 9.78575C8.18621 10.0565 8.35368 10.4331 8.36068 10.8295C8.36769 11.2258 8.21357 11.6082 7.93379 11.8889H7.93161L4.88734 14.9332C4.7122 15.1085 4.71242 15.3924 4.88756 15.5674C5.06269 15.7425 5.34663 15.7423 5.52176 15.5671L13.2951 7.79338C13.479 7.60839 13.729 7.50484 13.9897 7.5055C14.3892 7.50463 14.75 7.74522 14.903 8.11453C15.0561 8.48362 14.9709 8.90876 14.6876 9.19095L9.62274 14.2589C9.50628 14.3714 9.45943 14.5382 9.50059 14.695C9.54153 14.8517 9.6639 14.9741 9.82065 15.015C9.97739 15.0562 10.1442 15.0093 10.2567 14.8929L17.3597 7.79031C17.5515 7.59766 17.814 7.4928 18.0857 7.50025C18.3571 7.50747 18.6137 7.62656 18.7945 7.82928C19.1371 8.25267 19.0962 8.86848 18.7004 9.24283L17.4072 10.536V10.5386L11.6519 16.2885C11.5354 16.4012 11.4886 16.5678 11.5297 16.7246C11.5707 16.8813 11.693 17.0037 11.8498 17.0448C12.0068 17.0858 12.1734 17.0391 12.2859 16.9225L18.0368 11.1717C18.2236 10.9734 18.4885 10.8676 18.7604 10.883C19.0318 10.8891 19.2884 11.008 19.4688 11.2107C19.6632 11.4366 19.7413 11.7402 19.6809 12.0321C19.6726 12.0776 19.6614 12.1225 19.6472 12.1665C19.6411 12.1857 19.6347 12.2046 19.6275 12.2234C19.615 12.2567 19.6014 12.2889 19.5863 12.3208C19.5708 12.3515 19.5537 12.3815 19.5351 12.4103C19.5226 12.4314 19.511 12.4526 19.497 12.4727C19.4607 12.5248 19.4197 12.5739 19.3751 12.6194L17.4644 14.5374L17.4615 14.54L13.6821 18.3183C13.5655 18.4308 13.5188 18.5974 13.5598 18.7541C13.6009 18.9109 13.7233 19.0335 13.88 19.0744C14.0368 19.1156 14.2034 19.0687 14.3161 18.9523L18.0874 15.1803C18.0874 15.1803 18.0929 15.1775 18.0951 15.1753C18.4101 14.8335 18.9283 14.7751 19.3114 15.0382C19.3331 15.0516 19.3563 15.0614 19.3764 15.0768C19.3965 15.0919 19.4191 15.1162 19.441 15.1354C19.471 15.16 19.4994 15.186 19.5266 15.2134C19.5285 15.2164 19.5307 15.2193 19.5329 15.2219C19.6117 15.3185 19.6724 15.4281 19.7122 15.5461C19.7374 15.6293 19.751 15.7153 19.7532 15.802V15.852C19.7503 16.0284 19.7057 16.2018 19.6231 16.3577C19.6133 16.3765 19.603 16.3953 19.5916 16.4141C19.5498 16.4846 19.5001 16.5503 19.4432 16.6096C19.4384 16.6149 19.4348 16.6212 19.4294 16.6267L13.3408 22.715C13.2064 22.8497 13.0718 22.9729 12.9302 23.0927C11.0218 24.7074 8.37579 25.1317 6.05833 24.1942C5.89523 24.1279 5.73367 24.0548 5.57386 23.9749C4.83086 23.6023 4.16338 23.0951 3.60514 22.4792ZM21.2249 20.8949L13.769 25.1989C11.9137 26.2737 9.65646 26.3979 7.69452 25.5329C8.25254 25.6001 8.81647 25.6034 9.37537 25.5423C9.42003 25.538 9.46184 25.5286 9.50584 25.5235C9.73001 25.4962 9.94871 25.4611 10.1678 25.4145C10.2456 25.3985 10.3213 25.3764 10.3984 25.3576C10.5827 25.3129 10.7651 25.2626 10.9459 25.2035C11.0319 25.1757 11.1162 25.1444 11.2014 25.1137C11.3712 25.0515 11.5385 24.9837 11.704 24.9092C11.7896 24.8707 11.8747 24.8317 11.9595 24.7897C12.1219 24.7094 12.2806 24.6216 12.4378 24.5292C12.5181 24.4843 12.5994 24.4368 12.6782 24.386C12.84 24.2829 12.996 24.1704 13.1508 24.0539C13.2185 24.0036 13.2879 23.9569 13.3544 23.9042C13.5484 23.7481 13.7358 23.5813 13.9166 23.4037C13.9367 23.3845 13.9586 23.3687 13.9783 23.349L15.4521 21.875H15.4571C15.5357 21.8748 15.613 21.8542 15.6813 21.8148L20.3081 19.1432L20.3131 19.1392C20.5485 19.0061 20.828 18.9755 21.0868 19.0538C21.3456 19.1324 21.5608 19.3135 21.6827 19.5547C21.9038 20.0523 21.7048 20.636 21.2258 20.8949H21.2249ZM22.2024 17.0122L19.8576 18.3662C19.855 18.3662 19.8534 18.3706 19.8508 18.3719L17.7332 19.5961L20.0691 17.26C20.1487 17.179 20.2212 17.091 20.2858 16.9973C20.3068 16.9678 20.3252 16.9382 20.3445 16.9078C20.3828 16.8467 20.4178 16.7837 20.4493 16.7191C20.4695 16.6781 20.4911 16.6383 20.508 16.5965C20.564 16.4546 20.6045 16.3071 20.6286 16.1562C20.6358 16.1114 20.6431 16.0698 20.647 16.0262C20.6529 15.9667 20.6555 15.9076 20.6555 15.8469C20.6555 15.802 20.6525 15.7574 20.6494 15.7125C20.6494 15.6869 20.6494 15.6617 20.6461 15.6368L21.29 15.2646C21.5246 15.1291 21.8046 15.096 22.0645 15.1729C22.3243 15.2495 22.5413 15.4297 22.6645 15.6707C22.8846 16.1698 22.6836 16.7541 22.2033 17.0122H22.2024ZM22.4266 13.5735L20.3221 14.7893C20.2827 14.7285 20.24 14.6698 20.1938 14.614C20.1349 14.5503 20.0721 14.4903 20.0056 14.4347C19.9983 14.4288 19.9924 14.4213 19.9852 14.4154C19.9476 14.3845 19.9064 14.3598 19.8666 14.332C19.8265 14.3042 19.793 14.276 19.7536 14.2521C19.5914 14.156 19.4156 14.0849 19.2321 14.0415L20.0141 13.26C20.0892 13.1816 20.1582 13.0973 20.2203 13.008C20.2444 12.9745 20.265 12.9408 20.2884 12.9062C20.321 12.8543 20.3497 12.8009 20.3782 12.7466C20.429 12.6474 20.4714 12.5441 20.5049 12.4377C20.5095 12.4244 20.5152 12.4117 20.5194 12.3983L21.5146 11.8234C21.749 11.6884 22.0286 11.6553 22.288 11.7324C22.5474 11.8092 22.7639 11.9894 22.8865 12.2306C23.1061 12.7293 22.9067 13.3132 22.4279 13.5735H22.4266Z"/>
<path d="M23.3344 6.01883C23.5096 6.19375 23.7933 6.19375 23.9684 6.01883L26.8826 3.1046C26.9991 2.99208 27.046 2.82526 27.0048 2.66852C26.9639 2.51177 26.8415 2.3894 26.6847 2.34846C26.528 2.3073 26.3612 2.35415 26.2487 2.47061L23.3344 5.38485C23.1595 5.55998 23.1595 5.8437 23.3344 6.01883Z"/>
<path d="M26.3347 5.99015L24.093 7.33518C23.9527 7.41618 23.8668 7.56658 23.8686 7.7288C23.8706 7.8908 23.9597 8.03922 24.102 8.11694C24.2443 8.19465 24.4174 8.18962 24.5549 8.10358L26.7966 6.75855C26.9369 6.67755 27.0228 6.52716 27.021 6.36494C27.019 6.20294 26.9297 6.05451 26.7876 5.9768C26.6453 5.89908 26.4722 5.90412 26.3347 5.99015Z"/>
<path d="M21.4336 5.88113C21.6551 5.9919 21.9246 5.90193 22.0352 5.68038L23.3802 2.99032C23.491 2.76856 23.401 2.49929 23.1792 2.38852C22.9577 2.27797 22.6884 2.36772 22.5776 2.58949L21.2326 5.27955C21.1218 5.50109 21.2118 5.77058 21.4336 5.88113Z"/>
<path d="M10.91 4.75765C11.0098 4.9816 11.2708 5.08383 11.496 4.98707C11.7215 4.89053 11.8275 4.63089 11.734 4.40431L10.389 1.26591C10.2891 1.04196 10.0282 0.939724 9.80269 1.03649C9.57743 1.13303 9.47147 1.39266 9.56495 1.61924L10.91 4.75765Z"/>
<path d="M13.1154 5.02932C13.363 5.02932 13.5637 4.82858 13.5637 4.58098V1.89092C13.5637 1.64332 13.363 1.44258 13.1154 1.44258C12.8678 1.44258 12.667 1.64332 12.667 1.89092V4.58098C12.667 4.82858 12.8678 5.02932 13.1154 5.02932Z"/>
<path d="M9.17834 5.75788C9.33312 5.95119 9.61552 5.98249 9.80882 5.82772C10.0021 5.67316 10.0334 5.39076 9.87866 5.19745L8.08529 2.95574C7.93073 2.76243 7.64833 2.73113 7.45502 2.8859C7.26172 3.04046 7.23041 3.32286 7.38497 3.51617L9.17834 5.75788Z"/>
</mask>
<path d="M23.6823 11.8204C23.4478 11.3606 23.0347 11.0172 22.54 10.8707C22.045 10.724 21.5117 10.7869 21.0645 11.0447L20.5305 11.3528C20.4589 11.078 20.3234 10.8241 20.1352 10.6117C19.8803 10.326 19.5439 10.1255 19.1715 10.0373L19.3322 9.87682C20.0719 9.1684 20.1275 8.00463 19.4585 7.22879C19.113 6.84349 18.6242 6.61735 18.1069 6.60356C17.5894 6.58977 17.0891 6.78942 16.7236 7.15589L15.8269 8.05476C15.6257 7.20646 14.8687 6.60706 13.9967 6.60619H13.9941C13.4961 6.60509 13.0182 6.80343 12.667 7.15677L9.24205 10.5811C9.179 10.0263 8.9198 9.5121 8.51086 9.13162C7.95569 8.63096 7.10541 8.65482 6.57891 9.18547L3.34156 12.427C0.381138 15.3012 0.205347 19.9956 2.94247 23.0832C3.49612 23.6892 4.14367 24.2021 4.86041 24.6021C5.00884 24.7604 5.16974 24.9191 5.34378 25.0747C7.79785 27.258 11.3756 27.6212 14.2183 25.9756L21.675 21.6714C22.5713 21.1776 22.9255 20.0698 22.4822 19.1478C22.309 18.8045 22.0345 18.5227 21.6958 18.3406L22.6494 17.7905C23.5485 17.2997 23.9069 16.1911 23.4649 15.2668C23.2928 14.9253 23.0201 14.6451 22.6834 14.4638L22.8775 14.3517C23.776 13.8559 24.1293 12.744 23.6823 11.8204ZM3.60514 22.4792C1.1896 19.7456 1.35182 15.5956 3.97314 13.0588L7.21246 9.8199C7.39416 9.62616 7.69671 9.61105 7.89658 9.78575C8.18621 10.0565 8.35368 10.4331 8.36068 10.8295C8.36769 11.2258 8.21357 11.6082 7.93379 11.8889H7.93161L4.88734 14.9332C4.7122 15.1085 4.71242 15.3924 4.88756 15.5674C5.06269 15.7425 5.34663 15.7423 5.52176 15.5671L13.2951 7.79338C13.479 7.60839 13.729 7.50484 13.9897 7.5055C14.3892 7.50463 14.75 7.74522 14.903 8.11453C15.0561 8.48362 14.9709 8.90876 14.6876 9.19095L9.62274 14.2589C9.50628 14.3714 9.45943 14.5382 9.50059 14.695C9.54153 14.8517 9.6639 14.9741 9.82065 15.015C9.97739 15.0562 10.1442 15.0093 10.2567 14.8929L17.3597 7.79031C17.5515 7.59766 17.814 7.4928 18.0857 7.50025C18.3571 7.50747 18.6137 7.62656 18.7945 7.82928C19.1371 8.25267 19.0962 8.86848 18.7004 9.24283L17.4072 10.536V10.5386L11.6519 16.2885C11.5354 16.4012 11.4886 16.5678 11.5297 16.7246C11.5707 16.8813 11.693 17.0037 11.8498 17.0448C12.0068 17.0858 12.1734 17.0391 12.2859 16.9225L18.0368 11.1717C18.2236 10.9734 18.4885 10.8676 18.7604 10.883C19.0318 10.8891 19.2884 11.008 19.4688 11.2107C19.6632 11.4366 19.7413 11.7402 19.6809 12.0321C19.6726 12.0776 19.6614 12.1225 19.6472 12.1665C19.6411 12.1857 19.6347 12.2046 19.6275 12.2234C19.615 12.2567 19.6014 12.2889 19.5863 12.3208C19.5708 12.3515 19.5537 12.3815 19.5351 12.4103C19.5226 12.4314 19.511 12.4526 19.497 12.4727C19.4607 12.5248 19.4197 12.5739 19.3751 12.6194L17.4644 14.5374L17.4615 14.54L13.6821 18.3183C13.5655 18.4308 13.5188 18.5974 13.5598 18.7541C13.6009 18.9109 13.7233 19.0335 13.88 19.0744C14.0368 19.1156 14.2034 19.0687 14.3161 18.9523L18.0874 15.1803C18.0874 15.1803 18.0929 15.1775 18.0951 15.1753C18.4101 14.8335 18.9283 14.7751 19.3114 15.0382C19.3331 15.0516 19.3563 15.0614 19.3764 15.0768C19.3965 15.0919 19.4191 15.1162 19.441 15.1354C19.471 15.16 19.4994 15.186 19.5266 15.2134C19.5285 15.2164 19.5307 15.2193 19.5329 15.2219C19.6117 15.3185 19.6724 15.4281 19.7122 15.5461C19.7374 15.6293 19.751 15.7153 19.7532 15.802V15.852C19.7503 16.0284 19.7057 16.2018 19.6231 16.3577C19.6133 16.3765 19.603 16.3953 19.5916 16.4141C19.5498 16.4846 19.5001 16.5503 19.4432 16.6096C19.4384 16.6149 19.4348 16.6212 19.4294 16.6267L13.3408 22.715C13.2064 22.8497 13.0718 22.9729 12.9302 23.0927C11.0218 24.7074 8.37579 25.1317 6.05833 24.1942C5.89523 24.1279 5.73367 24.0548 5.57386 23.9749C4.83086 23.6023 4.16338 23.0951 3.60514 22.4792ZM21.2249 20.8949L13.769 25.1989C11.9137 26.2737 9.65646 26.3979 7.69452 25.5329C8.25254 25.6001 8.81647 25.6034 9.37537 25.5423C9.42003 25.538 9.46184 25.5286 9.50584 25.5235C9.73001 25.4962 9.94871 25.4611 10.1678 25.4145C10.2456 25.3985 10.3213 25.3764 10.3984 25.3576C10.5827 25.3129 10.7651 25.2626 10.9459 25.2035C11.0319 25.1757 11.1162 25.1444 11.2014 25.1137C11.3712 25.0515 11.5385 24.9837 11.704 24.9092C11.7896 24.8707 11.8747 24.8317 11.9595 24.7897C12.1219 24.7094 12.2806 24.6216 12.4378 24.5292C12.5181 24.4843 12.5994 24.4368 12.6782 24.386C12.84 24.2829 12.996 24.1704 13.1508 24.0539C13.2185 24.0036 13.2879 23.9569 13.3544 23.9042C13.5484 23.7481 13.7358 23.5813 13.9166 23.4037C13.9367 23.3845 13.9586 23.3687 13.9783 23.349L15.4521 21.875H15.4571C15.5357 21.8748 15.613 21.8542 15.6813 21.8148L20.3081 19.1432L20.3131 19.1392C20.5485 19.0061 20.828 18.9755 21.0868 19.0538C21.3456 19.1324 21.5608 19.3135 21.6827 19.5547C21.9038 20.0523 21.7048 20.636 21.2258 20.8949H21.2249ZM22.2024 17.0122L19.8576 18.3662C19.855 18.3662 19.8534 18.3706 19.8508 18.3719L17.7332 19.5961L20.0691 17.26C20.1487 17.179 20.2212 17.091 20.2858 16.9973C20.3068 16.9678 20.3252 16.9382 20.3445 16.9078C20.3828 16.8467 20.4178 16.7837 20.4493 16.7191C20.4695 16.6781 20.4911 16.6383 20.508 16.5965C20.564 16.4546 20.6045 16.3071 20.6286 16.1562C20.6358 16.1114 20.6431 16.0698 20.647 16.0262C20.6529 15.9667 20.6555 15.9076 20.6555 15.8469C20.6555 15.802 20.6525 15.7574 20.6494 15.7125C20.6494 15.6869 20.6494 15.6617 20.6461 15.6368L21.29 15.2646C21.5246 15.1291 21.8046 15.096 22.0645 15.1729C22.3243 15.2495 22.5413 15.4297 22.6645 15.6707C22.8846 16.1698 22.6836 16.7541 22.2033 17.0122H22.2024ZM22.4266 13.5735L20.3221 14.7893C20.2827 14.7285 20.24 14.6698 20.1938 14.614C20.1349 14.5503 20.0721 14.4903 20.0056 14.4347C19.9983 14.4288 19.9924 14.4213 19.9852 14.4154C19.9476 14.3845 19.9064 14.3598 19.8666 14.332C19.8265 14.3042 19.793 14.276 19.7536 14.2521C19.5914 14.156 19.4156 14.0849 19.2321 14.0415L20.0141 13.26C20.0892 13.1816 20.1582 13.0973 20.2203 13.008C20.2444 12.9745 20.265 12.9408 20.2884 12.9062C20.321 12.8543 20.3497 12.8009 20.3782 12.7466C20.429 12.6474 20.4714 12.5441 20.5049 12.4377C20.5095 12.4244 20.5152 12.4117 20.5194 12.3983L21.5146 11.8234C21.749 11.6884 22.0286 11.6553 22.288 11.7324C22.5474 11.8092 22.7639 11.9894 22.8865 12.2306C23.1061 12.7293 22.9067 13.3132 22.4279 13.5735H22.4266Z" fill="#495971"/>
<path d="M23.3344 6.01883C23.5096 6.19375 23.7933 6.19375 23.9684 6.01883L26.8826 3.1046C26.9991 2.99208 27.046 2.82526 27.0048 2.66852C26.9639 2.51177 26.8415 2.3894 26.6847 2.34846C26.528 2.3073 26.3612 2.35415 26.2487 2.47061L23.3344 5.38485C23.1595 5.55998 23.1595 5.8437 23.3344 6.01883Z" fill="#495971"/>
<path d="M26.3347 5.99015L24.093 7.33518C23.9527 7.41618 23.8668 7.56658 23.8686 7.7288C23.8706 7.8908 23.9597 8.03922 24.102 8.11694C24.2443 8.19465 24.4174 8.18962 24.5549 8.10358L26.7966 6.75855C26.9369 6.67755 27.0228 6.52716 27.021 6.36494C27.019 6.20294 26.9297 6.05451 26.7876 5.9768C26.6453 5.89908 26.4722 5.90412 26.3347 5.99015Z" fill="#495971"/>
<path d="M21.4336 5.88113C21.6551 5.9919 21.9246 5.90193 22.0352 5.68038L23.3802 2.99032C23.491 2.76856 23.401 2.49929 23.1792 2.38852C22.9577 2.27797 22.6884 2.36772 22.5776 2.58949L21.2326 5.27955C21.1218 5.50109 21.2118 5.77058 21.4336 5.88113Z" fill="#495971"/>
<path d="M10.91 4.75765C11.0098 4.9816 11.2708 5.08383 11.496 4.98707C11.7215 4.89053 11.8275 4.63089 11.734 4.40431L10.389 1.26591C10.2891 1.04196 10.0282 0.939724 9.80269 1.03649C9.57743 1.13303 9.47147 1.39266 9.56495 1.61924L10.91 4.75765Z" fill="#495971"/>
<path d="M13.1154 5.02932C13.363 5.02932 13.5637 4.82858 13.5637 4.58098V1.89092C13.5637 1.64332 13.363 1.44258 13.1154 1.44258C12.8678 1.44258 12.667 1.64332 12.667 1.89092V4.58098C12.667 4.82858 12.8678 5.02932 13.1154 5.02932Z" fill="#495971"/>
<path d="M9.17834 5.75788C9.33312 5.95119 9.61552 5.98249 9.80882 5.82772C10.0021 5.67316 10.0334 5.39076 9.87866 5.19745L8.08529 2.95574C7.93073 2.76243 7.64833 2.73113 7.45502 2.8859C7.26172 3.04046 7.23041 3.32286 7.38497 3.51617L9.17834 5.75788Z" fill="#495971"/>
<path d="M23.6823 11.8204C23.4478 11.3606 23.0347 11.0172 22.54 10.8707C22.045 10.724 21.5117 10.7869 21.0645 11.0447L20.5305 11.3528C20.4589 11.078 20.3234 10.8241 20.1352 10.6117C19.8803 10.326 19.5439 10.1255 19.1715 10.0373L19.3322 9.87682C20.0719 9.1684 20.1275 8.00463 19.4585 7.22879C19.113 6.84349 18.6242 6.61735 18.1069 6.60356C17.5894 6.58977 17.0891 6.78942 16.7236 7.15589L15.8269 8.05476C15.6257 7.20646 14.8687 6.60706 13.9967 6.60619H13.9941C13.4961 6.60509 13.0182 6.80343 12.667 7.15677L9.24205 10.5811C9.179 10.0263 8.9198 9.5121 8.51086 9.13162C7.95569 8.63096 7.10541 8.65482 6.57891 9.18547L3.34156 12.427C0.381138 15.3012 0.205347 19.9956 2.94247 23.0832C3.49612 23.6892 4.14367 24.2021 4.86041 24.6021C5.00884 24.7604 5.16974 24.9191 5.34378 25.0747C7.79785 27.258 11.3756 27.6212 14.2183 25.9756L21.675 21.6714C22.5713 21.1776 22.9255 20.0698 22.4822 19.1478C22.309 18.8045 22.0345 18.5227 21.6958 18.3406L22.6494 17.7905C23.5485 17.2997 23.9069 16.1911 23.4649 15.2668C23.2928 14.9253 23.0201 14.6451 22.6834 14.4638L22.8775 14.3517C23.776 13.8559 24.1293 12.744 23.6823 11.8204ZM3.60514 22.4792C1.1896 19.7456 1.35182 15.5956 3.97314 13.0588L7.21246 9.8199C7.39416 9.62616 7.69671 9.61105 7.89658 9.78575C8.18621 10.0565 8.35368 10.4331 8.36068 10.8295C8.36769 11.2258 8.21357 11.6082 7.93379 11.8889H7.93161L4.88734 14.9332C4.7122 15.1085 4.71242 15.3924 4.88756 15.5674C5.06269 15.7425 5.34663 15.7423 5.52176 15.5671L13.2951 7.79338C13.479 7.60839 13.729 7.50484 13.9897 7.5055C14.3892 7.50463 14.75 7.74522 14.903 8.11453C15.0561 8.48362 14.9709 8.90876 14.6876 9.19095L9.62274 14.2589C9.50628 14.3714 9.45943 14.5382 9.50059 14.695C9.54153 14.8517 9.6639 14.9741 9.82065 15.015C9.97739 15.0562 10.1442 15.0093 10.2567 14.8929L17.3597 7.79031C17.5515 7.59766 17.814 7.4928 18.0857 7.50025C18.3571 7.50747 18.6137 7.62656 18.7945 7.82928C19.1371 8.25267 19.0962 8.86848 18.7004 9.24283L17.4072 10.536V10.5386L11.6519 16.2885C11.5354 16.4012 11.4886 16.5678 11.5297 16.7246C11.5707 16.8813 11.693 17.0037 11.8498 17.0448C12.0068 17.0858 12.1734 17.0391 12.2859 16.9225L18.0368 11.1717C18.2236 10.9734 18.4885 10.8676 18.7604 10.883C19.0318 10.8891 19.2884 11.008 19.4688 11.2107C19.6632 11.4366 19.7413 11.7402 19.6809 12.0321C19.6726 12.0776 19.6614 12.1225 19.6472 12.1665C19.6411 12.1857 19.6347 12.2046 19.6275 12.2234C19.615 12.2567 19.6014 12.2889 19.5863 12.3208C19.5708 12.3515 19.5537 12.3815 19.5351 12.4103C19.5226 12.4314 19.511 12.4526 19.497 12.4727C19.4607 12.5248 19.4197 12.5739 19.3751 12.6194L17.4644 14.5374L17.4615 14.54L13.6821 18.3183C13.5655 18.4308 13.5188 18.5974 13.5598 18.7541C13.6009 18.9109 13.7233 19.0335 13.88 19.0744C14.0368 19.1156 14.2034 19.0687 14.3161 18.9523L18.0874 15.1803C18.0874 15.1803 18.0929 15.1775 18.0951 15.1753C18.4101 14.8335 18.9283 14.7751 19.3114 15.0382C19.3331 15.0516 19.3563 15.0614 19.3764 15.0768C19.3965 15.0919 19.4191 15.1162 19.441 15.1354C19.471 15.16 19.4994 15.186 19.5266 15.2134C19.5285 15.2164 19.5307 15.2193 19.5329 15.2219C19.6117 15.3185 19.6724 15.4281 19.7122 15.5461C19.7374 15.6293 19.751 15.7153 19.7532 15.802V15.852C19.7503 16.0284 19.7057 16.2018 19.6231 16.3577C19.6133 16.3765 19.603 16.3953 19.5916 16.4141C19.5498 16.4846 19.5001 16.5503 19.4432 16.6096C19.4384 16.6149 19.4348 16.6212 19.4294 16.6267L13.3408 22.715C13.2064 22.8497 13.0718 22.9729 12.9302 23.0927C11.0218 24.7074 8.37579 25.1317 6.05833 24.1942C5.89523 24.1279 5.73367 24.0548 5.57386 23.9749C4.83086 23.6023 4.16338 23.0951 3.60514 22.4792ZM21.2249 20.8949L13.769 25.1989C11.9137 26.2737 9.65646 26.3979 7.69452 25.5329C8.25254 25.6001 8.81647 25.6034 9.37537 25.5423C9.42003 25.538 9.46184 25.5286 9.50584 25.5235C9.73001 25.4962 9.94871 25.4611 10.1678 25.4145C10.2456 25.3985 10.3213 25.3764 10.3984 25.3576C10.5827 25.3129 10.7651 25.2626 10.9459 25.2035C11.0319 25.1757 11.1162 25.1444 11.2014 25.1137C11.3712 25.0515 11.5385 24.9837 11.704 24.9092C11.7896 24.8707 11.8747 24.8317 11.9595 24.7897C12.1219 24.7094 12.2806 24.6216 12.4378 24.5292C12.5181 24.4843 12.5994 24.4368 12.6782 24.386C12.84 24.2829 12.996 24.1704 13.1508 24.0539C13.2185 24.0036 13.2879 23.9569 13.3544 23.9042C13.5484 23.7481 13.7358 23.5813 13.9166 23.4037C13.9367 23.3845 13.9586 23.3687 13.9783 23.349L15.4521 21.875H15.4571C15.5357 21.8748 15.613 21.8542 15.6813 21.8148L20.3081 19.1432L20.3131 19.1392C20.5485 19.0061 20.828 18.9755 21.0868 19.0538C21.3456 19.1324 21.5608 19.3135 21.6827 19.5547C21.9038 20.0523 21.7048 20.636 21.2258 20.8949H21.2249ZM22.2024 17.0122L19.8576 18.3662C19.855 18.3662 19.8534 18.3706 19.8508 18.3719L17.7332 19.5961L20.0691 17.26C20.1487 17.179 20.2212 17.091 20.2858 16.9973C20.3068 16.9678 20.3252 16.9382 20.3445 16.9078C20.3828 16.8467 20.4178 16.7837 20.4493 16.7191C20.4695 16.6781 20.4911 16.6383 20.508 16.5965C20.564 16.4546 20.6045 16.3071 20.6286 16.1562C20.6358 16.1114 20.6431 16.0698 20.647 16.0262C20.6529 15.9667 20.6555 15.9076 20.6555 15.8469C20.6555 15.802 20.6525 15.7574 20.6494 15.7125C20.6494 15.6869 20.6494 15.6617 20.6461 15.6368L21.29 15.2646C21.5246 15.1291 21.8046 15.096 22.0645 15.1729C22.3243 15.2495 22.5413 15.4297 22.6645 15.6707C22.8846 16.1698 22.6836 16.7541 22.2033 17.0122H22.2024ZM22.4266 13.5735L20.3221 14.7893C20.2827 14.7285 20.24 14.6698 20.1938 14.614C20.1349 14.5503 20.0721 14.4903 20.0056 14.4347C19.9983 14.4288 19.9924 14.4213 19.9852 14.4154C19.9476 14.3845 19.9064 14.3598 19.8666 14.332C19.8265 14.3042 19.793 14.276 19.7536 14.2521C19.5914 14.156 19.4156 14.0849 19.2321 14.0415L20.0141 13.26C20.0892 13.1816 20.1582 13.0973 20.2203 13.008C20.2444 12.9745 20.265 12.9408 20.2884 12.9062C20.321 12.8543 20.3497 12.8009 20.3782 12.7466C20.429 12.6474 20.4714 12.5441 20.5049 12.4377C20.5095 12.4244 20.5152 12.4117 20.5194 12.3983L21.5146 11.8234C21.749 11.6884 22.0286 11.6553 22.288 11.7324C22.5474 11.8092 22.7639 11.9894 22.8865 12.2306C23.1061 12.7293 22.9067 13.3132 22.4279 13.5735H22.4266Z" stroke="#495971" stroke-width="0.4" mask="url(#path-1-outside-1_52_64)"/>
<path d="M23.3344 6.01883C23.5096 6.19375 23.7933 6.19375 23.9684 6.01883L26.8826 3.1046C26.9991 2.99208 27.046 2.82526 27.0048 2.66852C26.9639 2.51177 26.8415 2.3894 26.6847 2.34846C26.528 2.3073 26.3612 2.35415 26.2487 2.47061L23.3344 5.38485C23.1595 5.55998 23.1595 5.8437 23.3344 6.01883Z" stroke="#495971" stroke-width="0.4" mask="url(#path-1-outside-1_52_64)"/>
<path d="M26.3347 5.99015L24.093 7.33518C23.9527 7.41618 23.8668 7.56658 23.8686 7.7288C23.8706 7.8908 23.9597 8.03922 24.102 8.11694C24.2443 8.19465 24.4174 8.18962 24.5549 8.10358L26.7966 6.75855C26.9369 6.67755 27.0228 6.52716 27.021 6.36494C27.019 6.20294 26.9297 6.05451 26.7876 5.9768C26.6453 5.89908 26.4722 5.90412 26.3347 5.99015Z" stroke="#495971" stroke-width="0.4" mask="url(#path-1-outside-1_52_64)"/>
<path d="M21.4336 5.88113C21.6551 5.9919 21.9246 5.90193 22.0352 5.68038L23.3802 2.99032C23.491 2.76856 23.401 2.49929 23.1792 2.38852C22.9577 2.27797 22.6884 2.36772 22.5776 2.58949L21.2326 5.27955C21.1218 5.50109 21.2118 5.77058 21.4336 5.88113Z" stroke="#495971" stroke-width="0.4" mask="url(#path-1-outside-1_52_64)"/>
<path d="M10.91 4.75765C11.0098 4.9816 11.2708 5.08383 11.496 4.98707C11.7215 4.89053 11.8275 4.63089 11.734 4.40431L10.389 1.26591C10.2891 1.04196 10.0282 0.939724 9.80269 1.03649C9.57743 1.13303 9.47147 1.39266 9.56495 1.61924L10.91 4.75765Z" stroke="#495971" stroke-width="0.4" mask="url(#path-1-outside-1_52_64)"/>
<path d="M13.1154 5.02932C13.363 5.02932 13.5637 4.82858 13.5637 4.58098V1.89092C13.5637 1.64332 13.363 1.44258 13.1154 1.44258C12.8678 1.44258 12.667 1.64332 12.667 1.89092V4.58098C12.667 4.82858 12.8678 5.02932 13.1154 5.02932Z" stroke="#495971" stroke-width="0.4" mask="url(#path-1-outside-1_52_64)"/>
<path d="M9.17834 5.75788C9.33312 5.95119 9.61552 5.98249 9.80882 5.82772C10.0021 5.67316 10.0334 5.39076 9.87866 5.19745L8.08529 2.95574C7.93073 2.76243 7.64833 2.73113 7.45502 2.8859C7.26172 3.04046 7.23041 3.32286 7.38497 3.51617L9.17834 5.75788Z" stroke="#495971" stroke-width="0.4" mask="url(#path-1-outside-1_52_64)"/>
</svg>
