<svg width="24" height="25" viewBox="0 0 24 25" fill="none" xmlns="http://www.w3.org/2000/svg">
<path d="M12.2775 23.7351C18.5964 23.7349 23.735 18.5964 23.7351 12.2775C23.7476 5.97677 18.6459 0.856245 12.3451 0.85L12.2829 0.849938L12.2766 0.856205C5.9718 0.873173 0.85 6.00542 0.85 12.3141C0.85 14.8633 1.71016 17.3391 3.28559 19.3437L1.6757 23.082C1.67569 23.082 1.67568 23.0821 1.67567 23.0821C1.5076 23.4718 1.68971 23.9239 2.07437 24.0864C2.21404 24.1481 2.36639 24.1624 2.50853 24.14L2.50853 24.14L2.51109 24.1396L8.50479 23.0865C9.71761 23.521 10.9913 23.7413 12.2775 23.7351ZM12.2775 23.7351C12.2774 23.7351 12.2773 23.7351 12.2772 23.7351V23.5851L12.2779 23.7351C12.2777 23.7351 12.2776 23.7351 12.2775 23.7351ZM3.6445 22.3852L8.44915 21.5455L8.45031 21.5453C8.58196 21.5234 8.72131 21.5294 8.85641 21.5844C9.95448 21.9967 11.1129 22.2088 12.2833 22.2088C17.7528 22.2088 22.2088 17.7589 22.2088 12.2772V12.2771V12.277V12.2769V12.2769V12.2768V12.2767V12.2767V12.2766V12.2765V12.2764V12.2764V12.2763V12.2762V12.2761V12.2761V12.276V12.2759V12.2759V12.2758V12.2757V12.2756V12.2756V12.2755V12.2754V12.2754V12.2753V12.2752V12.2751V12.2751V12.275V12.2749V12.2748V12.2748V12.2747V12.2746V12.2746V12.2745V12.2744V12.2743V12.2743V12.2742V12.2741V12.2741V12.274V12.2739V12.2738V12.2738V12.2737V12.2736V12.2735V12.2735V12.2734V12.2733V12.2733V12.2732V12.2731V12.273V12.273V12.2729V12.2728V12.2728V12.2727V12.2726V12.2725V12.2725V12.2724V12.2723V12.2722V12.2722V12.2721V12.272V12.272V12.2719V12.2718V12.2717V12.2717V12.2716V12.2715V12.2715V12.2714V12.2713V12.2712V12.2712V12.2711V12.271V12.2709V12.2709V12.2708V12.2707V12.2707V12.2706V12.2705V12.2704V12.2704V12.2703V12.2702V12.2702V12.2701V12.27V12.2699V12.2699V12.2698V12.2697V12.2696V12.2696V12.2695V12.2694V12.2694V12.2693V12.2692V12.2691V12.2691V12.269V12.2689V12.2689V12.2688V12.2687V12.2686V12.2686V12.2685V12.2684V12.2683V12.2683V12.2682V12.2681V12.2681V12.268V12.2679V12.2678V12.2678V12.2677V12.2676V12.2676V12.2675V12.2674V12.2673V12.2673V12.2672V12.2671V12.267V12.267V12.2669V12.2668V12.2668V12.2667V12.2666V12.2665V12.2665V12.2664V12.2663V12.2663V12.2662V12.2661V12.266V12.266V12.2659V12.2658V12.2657V12.2657V12.2656V12.2655V12.2655V12.2654V12.2653V12.2652V12.2652V12.2651V12.265V12.265V12.2649V12.2648V12.2647V12.2647V12.2646V12.2645V12.2644V12.2644V12.2643V12.2642V12.2642V12.2641V12.264V12.2639V12.2639V12.2638V12.2637V12.2637V12.2636V12.2635V12.2634V12.2634V12.2633V12.2632V12.2631V12.2631V12.263V12.2629V12.2629V12.2628V12.2627V12.2626V12.2626V12.2625V12.2624V12.2624V12.2623V12.2622V12.2621V12.2621V12.262V12.2619V12.2618V12.2618V12.2617V12.2616V12.2616V12.2615V12.2614V12.2613V12.2613V12.2612V12.2611V12.2611V12.261V12.2609V12.2608V12.2608V12.2607V12.2606V12.2605V12.2605V12.2604V12.2603V12.2603V12.2602V12.2601V12.26V12.26V12.2599V12.2598V12.2598V12.2597V12.2596V12.2595V12.2595V12.2594V12.2593V12.2592V12.2592V12.2591V12.259V12.259V12.2589V12.2588V12.2587V12.2587V12.2586V12.2585V12.2585V12.2584V12.2583V12.2582V12.2582V12.2581V12.258V12.2579V12.2579V12.2578V12.2577V12.2577V12.2576V12.2575V12.2574V12.2574V12.2573V12.2572V12.2572V12.2571V12.257V12.2569V12.2569V12.2568V12.2567V12.2566V12.2566V12.2565V12.2564V12.2564V12.2563V12.2562V12.2561V12.2561V12.256V12.2559V12.2559V12.2558V12.2557V12.2556V12.2556V12.2555V12.2554V12.2553V12.2553V12.2552V12.2551V12.2551V12.255V12.2549V12.2548V12.2548V12.2547V12.2546V12.2546V12.2545V12.2544V12.2543V12.2543V12.2542V12.2541V12.254V12.254V12.2539V12.2538V12.2538V12.2537V12.2536V12.2535V12.2535V12.2534V12.2533V12.2533V12.2532V12.2531V12.253V12.253V12.2529V12.2528V12.2527V12.2527V12.2526V12.2525V12.2525V12.2524V12.2523V12.2522V12.2522V12.2521V12.252V12.252V12.2519V12.2518V12.2517V12.2517V12.2516V12.2515V12.2514V12.2514V12.2513V12.2512V12.2512V12.2511V12.251V12.2509V12.2509V12.2508V12.2507V12.2507V12.2506V12.2505V12.2504V12.2504V12.2503V12.2502V12.2501V12.2501V12.25V12.2499V12.2499V12.2498V12.2497V12.2496V12.2496V12.2495V12.2494V12.2494V12.2493V12.2492V12.2491V12.2491V12.249V12.2489V12.2488V12.2488V12.2487V12.2486V12.2486V12.2485V12.2484V12.2483V12.2483V12.2482V12.2481V12.2481V12.248V12.2479V12.2478V12.2478V12.2477V12.2476V12.2475V12.2475V12.2474V12.2473V12.2473V12.2472V12.2471V12.247V12.247V12.2469V12.2468V12.2468V12.2467V12.2466V12.2465V12.2465V12.2464V12.2463V12.2462V12.2462V12.2461V12.246V12.246V12.2459V12.2458V12.2457V12.2457V12.2456V12.2455V12.2455V12.2454V12.2453V12.2452V12.2452V12.2451V12.245V12.2449V12.2449V12.2448V12.2447V12.2447V12.2446V12.2445V12.2444V12.2444V12.2443V12.2442V12.2442V12.2441V12.244V12.2439V12.2439V12.2438V12.2437V12.2436V12.2436V12.2435V12.2434V12.2434V12.2433V12.2432V12.2431V12.2431V12.243V12.2429V12.2429V12.2428V12.2427V12.2426V12.2426V12.2425V12.2424V12.2423V12.2423V12.2422V12.2421V12.2421V12.242V12.2419V12.2418V12.2418V12.2417V12.2416V12.2416V12.2415V12.2414V12.2413V12.2413V12.2412V12.2411V12.241V12.241V12.2409V12.2408V12.2408V12.2407V12.2406V12.2405V12.2405V12.2404V12.2403C22.2027 6.78334 17.7716 2.37034 12.3145 2.38248L12.3141 2.38248C6.84461 2.38248 2.38864 6.8324 2.38864 12.308C2.38864 13.5402 2.6193 14.7603 3.0685 15.9076L3.06855 15.9077C3.46907 16.9333 4.03949 17.8799 4.75558 18.7113L3.6445 22.3852ZM3.6445 22.3852L4.87837 19.5156L4.87844 19.5154C4.99309 19.2479 4.94764 18.9342 4.75562 18.7114L3.6445 22.3852ZM11.8027 9.89021H8.47497C8.05319 9.89021 7.70873 10.2347 7.70873 10.6564C7.70873 11.0782 8.05319 11.4227 8.47497 11.4227H11.8027C12.2244 11.4227 12.5689 11.0782 12.5689 10.6564C12.5689 10.2347 12.2244 9.89021 11.8027 9.89021ZM16.1163 12.9714H8.47497C8.05319 12.9714 7.70873 13.3159 7.70873 13.7376C7.70873 14.1594 8.05319 14.5039 8.47497 14.5039H16.1163C16.5381 14.5039 16.8826 14.1594 16.8826 13.7376C16.8826 13.3159 16.5381 12.9714 16.1163 12.9714Z" fill="#495971" stroke="#495971" stroke-width="0.3"/>
</svg>
