<svg width="25" height="23" viewBox="0 0 25 23" fill="none" xmlns="http://www.w3.org/2000/svg">
<path d="M22.2132 3.35101L22.2133 3.35104C23.4452 4.68734 24.106 6.49309 24.106 8.41795C24.106 10.4396 23.343 12.2566 21.8155 14.0996C20.4812 15.7097 18.5825 17.3277 16.4655 19.1317L16.4227 19.1682L16.4226 19.1682L16.4063 19.1821C15.6751 19.8054 14.8514 20.5075 13.9974 21.2543L22.2132 3.35101ZM22.2132 3.35101C20.964 1.99604 19.2463 1.25 17.3902 1.25C15.988 1.25 14.6983 1.69697 13.5758 2.56499L13.5757 2.56507M22.2132 3.35101L13.5757 2.56507M13.5757 2.56507C13.2572 2.81141 12.9577 3.08739 12.678 3.39072M13.5757 2.56507L12.678 3.39072M12.678 3.39072C12.3983 3.08739 12.0986 2.81136 11.7801 2.56503C10.6577 1.69697 9.36805 1.25 7.96581 1.25C6.10979 1.25 4.39192 1.99602 3.14262 3.35101L3.14256 3.35108C1.9108 4.68738 1.25 6.4931 1.25 8.41811C1.25 10.4397 2.01318 12.2566 3.54066 14.0998L3.54068 14.0998C4.87528 15.7101 6.77459 17.3287 8.89261 19.1336L8.93382 19.1687L8.93386 19.1687L8.93434 19.1691C9.66924 19.7955 10.4984 20.5021 11.3588 21.2544C11.7241 21.5741 12.1926 21.75 12.678 21.75C13.1631 21.75 13.6319 21.5742 13.997 21.2547L12.678 3.39072Z" fill="white" stroke="#495971" stroke-width="1.5"/>
</svg>
