<svg width="18" height="20" viewBox="0 0 18 20" fill="none" xmlns="http://www.w3.org/2000/svg">
<path d="M14.6479 6.90044H11.6594V8.67373H14.6479C15.5366 8.67373 16.2262 9.12769 16.2262 9.51841V17.3817C16.2262 17.7725 15.5366 18.2264 14.6479 18.2264H3.35151C2.4628 18.2264 1.77329 17.7725 1.77329 17.3817V9.5187C1.77329 9.12799 2.4628 8.67403 3.35151 8.67403H6.3395V6.90074H3.35151C1.47212 6.90074 0 8.05072 0 9.5187V17.382C0 18.8503 1.47212 20 3.35151 20H14.6482C16.5273 20 17.9997 18.85 17.9997 17.382V9.5187C17.9994 8.05042 16.5273 6.90044 14.6479 6.90044Z" fill="#495971"/>
<path d="M6.37585 4.41991C6.60283 4.41991 6.82951 4.33332 7.0027 4.16013L8.11278 3.05005V12.0708C8.11278 12.5605 8.5097 12.9574 8.99942 12.9574C9.48915 12.9574 9.88607 12.5605 9.88607 12.0708V2.99005L11.0561 4.16013C11.2293 4.33332 11.4563 4.41991 11.683 4.41991C11.9097 4.41991 12.1367 4.33332 12.3099 4.16013C12.6562 3.81404 12.6562 3.2525 12.3099 2.90641L9.66263 0.259195C9.48944 0.0860043 9.26276 0 9.03607 0C9.03371 0 9.03164 0 9.02927 0C9.02691 0 9.02484 0 9.02248 0C8.79579 0 8.56911 0.0860043 8.39592 0.259195L5.7487 2.90641C5.40231 3.2525 5.40231 3.81404 5.7487 4.16013C5.92218 4.33332 6.14887 4.41991 6.37585 4.41991Z" fill="#495971"/>
</svg>
