<svg width="20" height="20" viewBox="0 0 20 20" fill="none" xmlns="http://www.w3.org/2000/svg">
<path d="M9.18369 0C6.01733 0 3.43436 2.59181 3.43436 5.75816C3.43436 7.69373 4.40289 9.40866 5.87686 10.4518C2.43891 11.8294 0 15.1908 0 19.113C0.0052606 19.35 0.103114 19.5756 0.27261 19.7413C0.442106 19.9071 0.66977 20 0.906857 20C1.14394 20 1.37161 19.9071 1.5411 19.7413C1.7106 19.5756 1.80845 19.35 1.81371 19.113C1.81371 14.9505 5.16994 11.596 9.33247 11.596C10.7855 11.596 12.1342 12.0103 13.2823 12.7208C13.3839 12.7839 13.497 12.8263 13.6151 12.8457C13.7332 12.865 13.8539 12.8609 13.9704 12.8335C14.0869 12.8062 14.1968 12.7561 14.2939 12.6861C14.391 12.6162 14.4734 12.5279 14.5363 12.4261C14.5992 12.3243 14.6414 12.2111 14.6605 12.093C14.6796 11.9748 14.6751 11.8541 14.6475 11.7376C14.6199 11.6212 14.5695 11.5114 14.4994 11.4144C14.4292 11.3175 14.3407 11.2354 14.2387 11.1727C13.7214 10.8526 13.1599 10.602 12.5809 10.3863C14.0073 9.33783 14.9419 7.6551 14.9419 5.75816C14.9419 2.59181 12.3501 0 9.18369 0ZM9.18369 1.81541C11.3698 1.81541 13.1282 3.572 13.1282 5.75816C13.1282 7.94431 11.3698 9.69379 9.18369 9.69379C6.99754 9.69379 5.24808 7.94431 5.24808 5.75816C5.24808 3.572 6.99754 1.81541 9.18369 1.81541ZM18.3621 12.6995C18.2147 12.7038 18.0705 12.7438 17.9421 12.8164C17.8137 12.8889 17.705 12.9917 17.6253 13.1157L14.4991 17.8006L12.5384 16.4881C12.4389 16.4213 12.3273 16.3747 12.2098 16.3511C12.0924 16.3275 11.9714 16.3272 11.8539 16.3504C11.7363 16.3737 11.6245 16.4199 11.5249 16.4864C11.4252 16.5529 11.3397 16.6385 11.2732 16.7381C11.2066 16.8377 11.1604 16.9494 11.1371 17.0669C11.1139 17.1845 11.1141 17.3055 11.1376 17.423C11.1612 17.5405 11.2078 17.6521 11.2746 17.7515C11.3414 17.851 11.4272 17.9362 11.527 18.0025L14.2529 19.8162C14.3522 19.8821 14.4635 19.9278 14.5804 19.9506C14.6974 19.9735 14.8177 19.973 14.9345 19.9493C15.0513 19.9256 15.1623 19.8792 15.2611 19.8126C15.3599 19.746 15.4446 19.6606 15.5104 19.5612L19.1396 14.1183C19.2343 13.98 19.2888 13.8182 19.297 13.6509C19.3053 13.4835 19.2671 13.3171 19.1865 13.1701C19.106 13.0232 18.9863 12.9014 18.8408 12.8184C18.6953 12.7353 18.5296 12.6942 18.3621 12.6995Z" fill="#FF0B0B"/>
</svg>
