<svg width="25" height="25" viewBox="0 0 25 25" fill="none" xmlns="http://www.w3.org/2000/svg">
<path d="M25 12.5C25 5.59644 19.4036 0 12.5 0C5.59644 0 0 5.59644 0 12.5C0 19.4036 5.59644 25 12.5 25C19.4036 25 25 19.4036 25 12.5Z" fill="url(#paint0_linear_52_6646)"/>
<path opacity="0.1" d="M21.9077 4.27616C20.0854 7.62155 17.5081 11.0722 14.2877 14.2926C11.0673 17.513 7.61663 20.0854 4.27618 21.9077C4.06675 21.7257 3.86335 21.536 3.66598 21.3387C2.47298 20.1855 1.5215 18.8063 0.867025 17.2816C0.212548 15.7569 -0.131829 14.1172 -0.146027 12.458C-0.160224 10.7989 0.156042 9.15347 0.784331 7.61779C1.41262 6.08212 2.34036 4.68689 3.51345 3.51347C4.68654 2.34006 6.0815 1.41193 7.617 0.783211C9.1525 0.154494 10.7978 -0.162232 12.457 -0.148497C14.1162 -0.134763 15.756 0.209157 17.2809 0.863208C18.8058 1.51726 20.1852 2.46835 21.3387 3.66103C21.536 3.8584 21.7257 4.06344 21.9077 4.27616Z" fill="white"/>
<path d="M15.4604 5.9209H9.53932C8.57965 5.9209 7.65929 6.30212 6.98071 6.98071C6.30212 7.65929 5.9209 8.57965 5.9209 9.53932V15.4604C5.9209 16.42 6.30212 17.3404 6.98071 18.019C7.65929 18.6976 8.57965 19.0788 9.53932 19.0788H15.4604C16.42 19.0788 17.3404 18.6976 18.019 18.019C18.6976 17.3404 19.0788 16.42 19.0788 15.4604V9.53932C19.0788 8.57965 18.6976 7.65929 18.019 6.98071C17.3404 6.30212 16.42 5.9209 15.4604 5.9209ZM17.9275 14.9406C17.9275 15.7328 17.6128 16.4925 17.0527 17.0527C16.4925 17.6128 15.7328 17.9275 14.9406 17.9275H10.0591C9.2669 17.9275 8.50718 17.6128 7.94704 17.0527C7.3869 16.4925 7.07221 15.7328 7.07221 14.9406V10.0591C7.07221 9.2669 7.3869 8.50718 7.94704 7.94704C8.50718 7.3869 9.2669 7.07221 10.0591 7.07221H14.9406C15.7328 7.07221 16.4925 7.3869 17.0527 7.94704C17.6128 8.50718 17.9275 9.2669 17.9275 10.0591V14.9406Z" fill="white"/>
<path d="M14.8997 10.1248L14.8684 10.0935L14.8421 10.0672C14.2202 9.44748 13.378 9.09968 12.5 9.1001C12.0567 9.10311 11.6182 9.19345 11.2098 9.36595C10.8014 9.53845 10.4309 9.78974 10.1197 10.1055C9.80838 10.4212 9.56235 10.7951 9.39564 11.2059C9.22892 11.6168 9.14479 12.0564 9.14804 12.4998C9.14737 13.3995 9.50204 14.2631 10.1349 14.9027C10.4449 15.2165 10.8142 15.4653 11.2214 15.6348C11.6287 15.8042 12.0655 15.8908 12.5066 15.8896C13.1682 15.8757 13.8114 15.6696 14.3579 15.2964C14.9043 14.9233 15.3304 14.3991 15.5841 13.788C15.8378 13.1768 15.9082 12.5051 15.7866 11.8546C15.6651 11.2041 15.3569 10.6031 14.8997 10.1248ZM12.5 14.73C12.0576 14.7362 11.6234 14.6107 11.2525 14.3695C10.8817 14.1282 10.591 13.7821 10.4174 13.3751C10.2438 12.9682 10.1951 12.5188 10.2776 12.0841C10.3601 11.6495 10.57 11.2492 10.8806 10.9341C11.1913 10.6191 11.5886 10.4035 12.022 10.3149C12.4555 10.2263 12.9055 10.2686 13.3149 10.4365C13.7242 10.6043 14.0744 10.8901 14.3209 11.2575C14.5673 11.6249 14.699 12.0573 14.699 12.4998C14.7012 12.7906 14.646 13.0791 14.5367 13.3486C14.4273 13.6181 14.2659 13.8635 14.0617 14.0706C13.8575 14.2777 13.6144 14.4426 13.3465 14.5557C13.0785 14.6689 12.7909 14.7281 12.5 14.73Z" fill="white"/>
<path d="M16.847 8.9441C16.8478 9.04964 16.8279 9.15432 16.7882 9.25214C16.7486 9.34996 16.6901 9.439 16.616 9.51416C16.5419 9.58933 16.4537 9.64914 16.3564 9.69017C16.2592 9.73121 16.1548 9.75267 16.0493 9.75331C15.9446 9.75326 15.841 9.73245 15.7445 9.69208C15.6479 9.6517 15.5603 9.59258 15.4868 9.51811C15.3753 9.40506 15.2996 9.26179 15.2688 9.10607C15.238 8.95034 15.2536 8.78901 15.3137 8.64209C15.3738 8.49516 15.4757 8.36909 15.6067 8.27951C15.7377 8.18994 15.8922 8.1408 16.0509 8.13818C16.2367 8.13815 16.4165 8.20334 16.5591 8.32239L16.5756 8.33884C16.6021 8.36043 16.6264 8.38468 16.648 8.41121L16.666 8.43095C16.7838 8.57599 16.8477 8.7573 16.847 8.9441Z" fill="white"/>
<defs>
<linearGradient id="paint0_linear_52_6646" x1="3.66118" y1="3.66118" x2="21.3388" y2="21.3388" gradientUnits="userSpaceOnUse">
<stop stop-color="#FAE100"/>
<stop offset="0.15" stop-color="#FCB720"/>
<stop offset="0.3" stop-color="#FF7950"/>
<stop offset="0.5" stop-color="#FF1C74"/>
<stop offset="1" stop-color="#6C1CD1"/>
</linearGradient>
</defs>
</svg>
