<svg width="20" height="20" viewBox="0 0 20 20" fill="none" xmlns="http://www.w3.org/2000/svg">
<path d="M17.3658 18.8559L17.3658 18.8559L17.368 18.8581C17.5661 19.048 17.8307 19.1528 18.1051 19.1499C18.3794 19.1471 18.6418 19.037 18.836 18.8431C19.0301 18.6493 19.1406 18.3871 19.1438 18.1127C19.147 17.8383 19.0426 17.5736 18.853 17.3753L18.853 17.3752L18.8506 17.3729L15.5807 14.1029C16.6582 12.7106 17.3045 10.9673 17.3045 9.07641C17.3045 4.5427 13.61 0.85 9.07639 0.85C4.54275 0.85 0.85 4.54274 0.85 9.07641C0.85 13.6099 4.54258 17.3099 9.07639 17.3099C10.965 17.3099 12.7057 16.6643 14.0959 15.5877L17.3658 18.8559ZM9.07639 2.94517C12.4742 2.94517 15.2076 5.67862 15.2076 9.07641C15.2076 12.4744 12.474 15.2147 9.07639 15.2147C5.67882 15.2147 2.94514 12.4744 2.94514 9.07641C2.94514 5.67862 5.6786 2.94517 9.07639 2.94517Z" fill="#2C404C" stroke="#2C404C" stroke-width="0.3"/>
</svg>
