<svg width="23" height="26" viewBox="0 0 23 26" fill="none" xmlns="http://www.w3.org/2000/svg">
<path d="M19.2969 13.3485V10.918C19.2969 7.37232 16.9401 4.36714 13.711 3.38559V2.28516C13.711 1.02512 12.6859 0 11.4258 0C10.1658 0 9.14068 1.02512 9.14068 2.28516V3.38559C5.9115 4.36714 3.55475 7.37227 3.55475 10.918V13.3485C3.55475 16.463 2.36758 19.4162 0.211969 21.6642C0.000719506 21.8845 -0.0586438 22.2095 0.0610983 22.4903C0.180841 22.771 0.456583 22.9531 0.761778 22.9531H7.69387C8.04772 24.6894 9.58659 26 11.4258 26C13.2651 26 14.8039 24.6894 15.1578 22.9531H22.0899C22.3951 22.9531 22.6708 22.771 22.7905 22.4903C22.9103 22.2095 22.8509 21.8845 22.6397 21.6642C20.4841 19.4162 19.2969 16.4629 19.2969 13.3485ZM10.6641 2.28516C10.6641 1.86514 11.0058 1.52344 11.4258 1.52344C11.8458 1.52344 12.1876 1.86514 12.1876 2.28516V3.08384C11.9368 3.05967 11.6828 3.04688 11.4258 3.04688C11.1689 3.04688 10.9148 3.05967 10.6641 3.08384V2.28516ZM11.4258 24.4766C10.4328 24.4766 9.58613 23.8397 9.2717 22.9531H13.58C13.2655 23.8397 12.4189 24.4766 11.4258 24.4766ZM2.40354 21.4297C4.13827 19.1043 5.07818 16.2902 5.07818 13.3485V10.918C5.07818 7.41787 7.92574 4.57031 11.4258 4.57031C14.9259 4.57031 17.7735 7.41787 17.7735 10.918V13.3485C17.7735 16.2902 18.7134 19.1043 20.4482 21.4297H2.40354Z" fill="#2C404C"/>
<path d="M21.3282 10.918C21.3282 11.3386 21.6692 11.6797 22.0899 11.6797C22.5106 11.6797 22.8516 11.3386 22.8516 10.918C22.8516 7.86602 21.6631 4.99672 19.5051 2.83867C19.2077 2.54125 18.7253 2.5412 18.4279 2.83867C18.1304 3.13615 18.1304 3.61842 18.4279 3.91589C20.2982 5.78622 21.3282 8.27293 21.3282 10.918Z" fill="#2C404C"/>
<path d="M0.761778 11.6797C1.18245 11.6797 1.5235 11.3386 1.5235 10.918C1.5235 8.27298 2.55354 5.78627 4.42382 3.91595C4.72129 3.61847 4.72129 3.1362 4.42382 2.83872C4.12639 2.54125 3.64407 2.54125 3.34659 2.83872C1.18854 4.99677 5.92751e-05 7.86602 5.92751e-05 10.918C5.92751e-05 11.3386 0.341106 11.6797 0.761778 11.6797Z" fill="#2C404C"/>
</svg>
